<?xml version="1.0" encoding="UTF-8"?>
<!DOCTYPE svg PUBLIC "-//W3C//DTD SVG 1.1//EN" "http://www.w3.org/Graphics/SVG/1.1/DTD/svg11.dtd">
<svg xmlns="http://www.w3.org/2000/svg" version="1.1" width="1920px" height="1080px" style="shape-rendering:geometricPrecision; text-rendering:geometricPrecision; image-rendering:optimizeQuality; fill-rule:evenodd; clip-rule:evenodd" xmlns:xlink="http://www.w3.org/1999/xlink">
<g><path style="opacity:0.985" fill="#95bd0c" d="M 315.5,271.5 C 383.167,271.5 450.833,271.5 518.5,271.5C 518.667,316.835 518.5,362.168 518,407.5C 504.393,384.093 484.227,369.593 457.5,364C 400.391,352.978 353.391,369.812 316.5,414.5C 315.5,366.838 315.167,319.171 315.5,271.5 Z"/></g>
<g><path style="opacity:0.846" fill="#95bd0c" d="M 1350.5,343.5 C 1354.18,343.335 1357.85,343.501 1361.5,344C 1357.98,348.038 1353.65,350.538 1348.5,351.5C 1347.17,351.333 1345.83,351.167 1344.5,351C 1347.09,348.914 1349.09,346.414 1350.5,343.5 Z"/></g>
<g><path style="opacity:0.885" fill="#95bd0c" d="M 1284.5,353.5 C 1291.58,352.643 1298.25,353.809 1304.5,357C 1305.69,358.019 1306.69,359.186 1307.5,360.5C 1305.91,362.633 1303.91,364.299 1301.5,365.5C 1291.71,358.608 1284.55,360.608 1280,371.5C 1281.92,385.71 1289.09,389.043 1301.5,381.5C 1303.19,383.027 1305.03,384.36 1307,385.5C 1307.16,387.387 1306.33,388.887 1304.5,390C 1294.96,394.889 1285.63,394.556 1276.5,389C 1268.91,379.259 1268.58,369.259 1275.5,359C 1278.26,356.626 1281.26,354.792 1284.5,353.5 Z"/></g>
<g><path style="opacity:0.901" fill="#95bd0c" d="M 1342.5,353.5 C 1364.51,351.334 1373.34,361.001 1369,382.5C 1362.93,392.422 1354.1,395.922 1342.5,393C 1329.72,387.449 1325.55,377.949 1330,364.5C 1333.15,359.509 1337.31,355.843 1342.5,353.5 Z M 1345.5,361.5 C 1358.2,361.241 1363.03,367.241 1360,379.5C 1356.53,384.816 1351.69,386.649 1345.5,385C 1334.91,377.173 1334.91,369.34 1345.5,361.5 Z"/></g>
<g><path style="opacity:0.98" fill="#95bd0c" d="M 1064.5,354.5 C 1074.17,354.5 1083.83,354.5 1093.5,354.5C 1093.5,356.833 1093.5,359.167 1093.5,361.5C 1086.83,361.5 1080.17,361.5 1073.5,361.5C 1073.5,364.833 1073.5,368.167 1073.5,371.5C 1079.5,371.5 1085.5,371.5 1091.5,371.5C 1091.5,373.833 1091.5,376.167 1091.5,378.5C 1085.5,378.5 1079.5,378.5 1073.5,378.5C 1073.5,383.167 1073.5,387.833 1073.5,392.5C 1070.5,392.5 1067.5,392.5 1064.5,392.5C 1064.5,379.833 1064.5,367.167 1064.5,354.5 Z"/></g>
<g><path style="opacity:0.94" fill="#95bd0c" d="M 1099.5,354.5 C 1102.5,354.5 1105.5,354.5 1108.5,354.5C 1108.12,363.568 1108.62,372.568 1110,381.5C 1111.39,384.366 1113.73,385.699 1117,385.5C 1121.31,385.68 1123.98,383.68 1125,379.5C 1125.5,371.173 1125.67,362.84 1125.5,354.5C 1128.5,354.5 1131.5,354.5 1134.5,354.5C 1134.93,364.912 1134.43,375.246 1133,385.5C 1129.45,391.58 1124.12,394.247 1117,393.5C 1109.39,394.366 1104.06,391.366 1101,384.5C 1099.58,374.58 1099.08,364.58 1099.5,354.5 Z"/></g>
<g><path style="opacity:0.945" fill="#95bd0c" d="M 1142.5,354.5 C 1145.52,354.335 1148.52,354.502 1151.5,355C 1157.33,362.167 1163.17,369.333 1169,376.5C 1169.5,369.174 1169.67,361.841 1169.5,354.5C 1172.5,354.5 1175.5,354.5 1178.5,354.5C 1178.5,367.167 1178.5,379.833 1178.5,392.5C 1175.43,392.817 1172.43,392.484 1169.5,391.5C 1163.48,384.646 1157.64,377.646 1152,370.5C 1151.5,377.826 1151.33,385.159 1151.5,392.5C 1148.5,392.5 1145.5,392.5 1142.5,392.5C 1142.5,379.833 1142.5,367.167 1142.5,354.5 Z"/></g>
<g><path style="opacity:0.929" fill="#95bd0c" d="M 1186.5,354.5 C 1195.91,354.083 1205.25,354.583 1214.5,356C 1222.35,359.19 1226.01,365.023 1225.5,373.5C 1226.01,381.977 1222.35,387.81 1214.5,391C 1205.25,392.417 1195.91,392.917 1186.5,392.5C 1186.5,379.833 1186.5,367.167 1186.5,354.5 Z M 1195.5,362.5 C 1200.93,362.161 1206.26,362.661 1211.5,364C 1218.17,370.333 1218.17,376.667 1211.5,383C 1206.26,384.339 1200.93,384.839 1195.5,384.5C 1195.5,377.167 1195.5,369.833 1195.5,362.5 Z"/></g>
<g><path style="opacity:0.911" fill="#95bd0c" d="M 1242.5,354.5 C 1246.23,354.177 1249.89,354.511 1253.5,355.5C 1258.83,367.5 1264.17,379.5 1269.5,391.5C 1262.89,394.006 1258.55,392.006 1256.5,385.5C 1250.86,384.337 1245.2,384.17 1239.5,385C 1238.21,387.022 1237.21,389.189 1236.5,391.5C 1233.17,392.833 1229.83,392.833 1226.5,391.5C 1232.12,379.262 1237.45,366.928 1242.5,354.5 Z M 1247.5,364.5 C 1249.6,368.53 1251.6,372.697 1253.5,377C 1249.83,377.667 1246.17,377.667 1242.5,377C 1244.46,372.946 1246.13,368.779 1247.5,364.5 Z"/></g>
<g><path style="opacity:0.97" fill="#95bd0c" d="M 1312.5,354.5 C 1315.5,354.5 1318.5,354.5 1321.5,354.5C 1321.5,367.167 1321.5,379.833 1321.5,392.5C 1318.5,392.5 1315.5,392.5 1312.5,392.5C 1312.5,379.833 1312.5,367.167 1312.5,354.5 Z"/></g>
<g><path style="opacity:0.945" fill="#95bd0c" d="M 1377.5,354.5 C 1380.52,354.335 1383.52,354.502 1386.5,355C 1392.33,362.167 1398.17,369.333 1404,376.5C 1404.5,369.174 1404.67,361.841 1404.5,354.5C 1407.5,354.5 1410.5,354.5 1413.5,354.5C 1413.5,367.167 1413.5,379.833 1413.5,392.5C 1410.43,392.817 1407.43,392.484 1404.5,391.5C 1398.48,384.646 1392.64,377.646 1387,370.5C 1386.5,377.826 1386.33,385.159 1386.5,392.5C 1383.5,392.5 1380.5,392.5 1377.5,392.5C 1377.5,379.833 1377.5,367.167 1377.5,354.5 Z"/></g>
<g><path style="opacity:0.944" fill="#009f94" d="M 499.5,403.5 C 500.239,403.369 500.906,403.536 501.5,404C 492.388,431.895 481.055,458.895 467.5,485C 470.726,501.453 466.392,515.453 454.5,527C 441.784,536.507 429.951,535.674 419,524.5C 413.8,515.316 414.467,506.649 421,498.5C 419.372,506.824 421.539,513.99 427.5,520C 435.529,521.917 442.029,519.417 447,512.5C 448.908,509.785 450.241,506.785 451,503.5C 451.405,495.147 451.405,486.813 451,478.5C 465.184,452.11 481.351,427.11 499.5,403.5 Z"/></g>
<g><path style="opacity:0.869" fill="#95bd0c" d="M 1423.5,411.5 C 1429.21,411.171 1434.87,411.505 1440.5,412.5C 1434.65,419.184 1428.32,425.35 1421.5,431C 1417.17,431.667 1412.83,431.667 1408.5,431C 1413.63,424.56 1418.63,418.06 1423.5,411.5 Z"/></g>
<g><path style="opacity:0.983" fill="#95bd0c" d="M 154.5,435.5 C 203.5,435.5 252.5,435.5 301.5,435.5C 282.967,473.464 272.967,513.631 271.5,556C 271.295,564.039 272.129,571.873 274,579.5C 261.568,587.265 251.901,597.598 245,610.5C 244.045,614.902 242.879,619.236 241.5,623.5C 235.216,628.459 230.883,634.792 228.5,642.5C 203.842,643.5 179.176,643.833 154.5,643.5C 154.5,574.167 154.5,504.833 154.5,435.5 Z"/></g>
<g><path style="opacity:0.989" fill="#009e94" d="M 531.5,435.5 C 580.833,435.5 630.167,435.5 679.5,435.5C 679.5,504.833 679.5,574.167 679.5,643.5C 630.167,643.5 580.833,643.5 531.5,643.5C 532.263,640.859 532.43,638.192 532,635.5C 529.972,629.944 527.805,624.444 525.5,619C 527.601,614.564 530.768,611.064 535,608.5C 536.439,606.725 537.439,604.725 538,602.5C 539.308,593.488 539.475,584.488 538.5,575.5C 547.582,575.914 556.582,575.414 565.5,574C 572.935,568.258 574.435,561.091 570,552.5C 562.079,538.326 554.412,523.992 547,509.5C 545.667,506.833 543.667,504.833 541,503.5C 541.885,498.154 543.219,492.821 545,487.5C 545.667,483.5 545.667,479.5 545,475.5C 542.861,469.888 540.194,464.554 537,459.5C 534.846,451.561 533.013,443.561 531.5,435.5 Z"/></g>
<g><path style="opacity:0.937" fill="#95bd0c" d="M 1275.5,441.5 C 1276.24,441.369 1276.91,441.536 1277.5,442C 1291.36,455.529 1304.86,469.362 1318,483.5C 1331.32,469.015 1345.15,455.015 1359.5,441.5C 1360.5,470.159 1360.83,498.826 1360.5,527.5C 1355.5,527.5 1350.5,527.5 1345.5,527.5C 1345.67,510.83 1345.5,494.163 1345,477.5C 1336.36,487.137 1327.36,496.47 1318,505.5C 1308.64,496.47 1299.64,487.137 1291,477.5C 1290.5,494.163 1290.33,510.83 1290.5,527.5C 1285.5,527.5 1280.5,527.5 1275.5,527.5C 1275.5,498.833 1275.5,470.167 1275.5,441.5 Z"/></g>
<g><path style="opacity:0.946" fill="#95bd0c" d="M 1383.5,441.5 C 1402.5,441.5 1421.5,441.5 1440.5,441.5C 1440.5,446.5 1440.5,451.5 1440.5,456.5C 1426.5,456.5 1412.5,456.5 1398.5,456.5C 1398.5,463.167 1398.5,469.833 1398.5,476.5C 1412.5,476.5 1426.5,476.5 1440.5,476.5C 1440.5,481.5 1440.5,486.5 1440.5,491.5C 1426.5,491.5 1412.5,491.5 1398.5,491.5C 1398.5,498.5 1398.5,505.5 1398.5,512.5C 1412.5,512.5 1426.5,512.5 1440.5,512.5C 1440.5,517.5 1440.5,522.5 1440.5,527.5C 1421.5,527.5 1402.5,527.5 1383.5,527.5C 1383.5,498.833 1383.5,470.167 1383.5,441.5 Z"/></g>
<g><path style="opacity:0.945" fill="#95bd0c" d="M 1463.5,441.5 C 1475.84,441.333 1488.17,441.5 1500.5,442C 1521.61,448.108 1532.61,462.108 1533.5,484C 1532.86,507.308 1521.19,521.642 1498.5,527C 1486.84,527.5 1475.17,527.667 1463.5,527.5C 1463.5,498.833 1463.5,470.167 1463.5,441.5 Z M 1478.5,456.5 C 1497.53,452.928 1510.7,459.928 1518,477.5C 1520.48,492.035 1515.32,502.868 1502.5,510C 1494.66,512.158 1486.66,512.991 1478.5,512.5C 1478.5,493.833 1478.5,475.167 1478.5,456.5 Z"/></g>
<g><path style="opacity:0.997" fill="#95bd0c" d="M 1557.5,441.5 C 1562.17,441.5 1566.83,441.5 1571.5,441.5C 1571.5,470.167 1571.5,498.833 1571.5,527.5C 1566.83,527.5 1562.17,527.5 1557.5,527.5C 1557.5,498.833 1557.5,470.167 1557.5,441.5 Z"/></g>
<g><path style="opacity:0.93" fill="#95bd0c" d="M 1628.5,441.5 C 1640.86,439.64 1652.19,442.14 1662.5,449C 1664.35,450.684 1666.02,452.517 1667.5,454.5C 1664.47,458.366 1660.97,461.699 1657,464.5C 1643.41,453.591 1630.08,453.924 1617,465.5C 1605.93,482.262 1608.43,496.762 1624.5,509C 1636.24,514.252 1647.08,512.752 1657,504.5C 1661.52,507.341 1664.85,511.008 1667,515.5C 1650.83,529.265 1633.33,531.098 1614.5,521C 1594.24,504.826 1589.74,484.993 1601,461.5C 1607.71,451.25 1616.87,444.583 1628.5,441.5 Z"/></g>
<g><path style="opacity:0.94" fill="#95bd0c" d="M 1712.5,441.5 C 1738.22,439.076 1755.05,450.076 1763,474.5C 1766.87,496.591 1759.04,513.091 1739.5,524C 1717.77,531.928 1699.94,526.761 1686,508.5C 1674.4,485.906 1677.9,466.072 1696.5,449C 1701.54,445.643 1706.88,443.143 1712.5,441.5 Z M 1716.5,456.5 C 1732.42,455.375 1742.92,462.375 1748,477.5C 1750.4,497.425 1741.74,509.091 1722,512.5C 1702.23,509.731 1693.23,498.398 1695,478.5C 1698.35,467.318 1705.52,459.984 1716.5,456.5 Z"/></g>
<g><path style="opacity:0.903" fill="#95bd0c" d="M 746.5,443.5 C 756.461,442.283 765.794,444.116 774.5,449C 776.976,450.309 778.976,452.142 780.5,454.5C 778.5,457.167 776.167,459.5 773.5,461.5C 754.66,449.472 739.16,452.805 727,471.5C 720.881,490.424 726.714,504.257 744.5,513C 754.397,515.94 763.397,514.273 771.5,508C 772.5,507.333 773.5,507.333 774.5,508C 777.274,510.064 779.107,512.564 780,515.5C 760.544,529.555 741.877,528.555 724,512.5C 708.775,491.087 710.275,470.92 728.5,452C 733.99,447.902 739.99,445.069 746.5,443.5 Z"/></g>
<g><path style="opacity:0.94" fill="#95bd0c" d="M 809.5,443.5 C 826.833,443.5 844.167,443.5 861.5,443.5C 861.5,447.167 861.5,450.833 861.5,454.5C 847.5,454.5 833.5,454.5 819.5,454.5C 819.5,462.833 819.5,471.167 819.5,479.5C 833.5,479.5 847.5,479.5 861.5,479.5C 861.5,482.833 861.5,486.167 861.5,489.5C 847.5,489.5 833.5,489.5 819.5,489.5C 819.5,497.833 819.5,506.167 819.5,514.5C 833.5,514.5 847.5,514.5 861.5,514.5C 861.5,518.167 861.5,521.833 861.5,525.5C 844.167,525.5 826.833,525.5 809.5,525.5C 809.5,498.167 809.5,470.833 809.5,443.5 Z"/></g>
<g><path style="opacity:0.899" fill="#95bd0c" d="M 944.5,443.5 C 948.167,443.5 951.833,443.5 955.5,443.5C 955.833,469.842 955.5,496.175 954.5,522.5C 936.183,506.018 918.017,489.351 900,472.5C 899.5,490.164 899.333,507.83 899.5,525.5C 895.833,525.5 892.167,525.5 888.5,525.5C 888.167,499.158 888.5,472.825 889.5,446.5C 907.572,462.95 925.739,479.284 944,495.5C 944.5,478.17 944.667,460.837 944.5,443.5 Z"/></g>
<g><path style="opacity:0.896" fill="#95bd0c" d="M 982.5,443.5 C 1004.5,443.5 1026.5,443.5 1048.5,443.5C 1048.5,447.167 1048.5,450.833 1048.5,454.5C 1039.5,454.5 1030.5,454.5 1021.5,454.5C 1021.5,478.167 1021.5,501.833 1021.5,525.5C 1017.83,525.5 1014.17,525.5 1010.5,525.5C 1010.5,501.833 1010.5,478.167 1010.5,454.5C 1001.17,454.5 991.833,454.5 982.5,454.5C 982.5,450.833 982.5,447.167 982.5,443.5 Z"/></g>
<g><path style="opacity:0.936" fill="#95bd0c" d="M 1076.5,443.5 C 1091.84,443.333 1107.17,443.5 1122.5,444C 1137.82,449.475 1144.32,460.308 1142,476.5C 1140.88,480.951 1138.88,484.951 1136,488.5C 1132.62,491.39 1129.12,494.056 1125.5,496.5C 1131.01,505.979 1136.01,515.646 1140.5,525.5C 1136.45,525.824 1132.45,525.491 1128.5,524.5C 1123.25,515.661 1118.25,506.661 1113.5,497.5C 1104.52,496.502 1095.52,496.168 1086.5,496.5C 1086.5,506.167 1086.5,515.833 1086.5,525.5C 1083.17,525.5 1079.83,525.5 1076.5,525.5C 1076.5,498.167 1076.5,470.833 1076.5,443.5 Z M 1086.5,454.5 C 1098.17,454.333 1109.84,454.5 1121.5,455C 1131.92,460.797 1134.42,468.963 1129,479.5C 1122.56,485.531 1114.9,487.864 1106,486.5C 1099.49,486.268 1092.99,485.934 1086.5,485.5C 1086.5,475.167 1086.5,464.833 1086.5,454.5 Z"/></g>
<g><path style="opacity:0.913" fill="#95bd0c" d="M 1202.5,443.5 C 1219.93,441.469 1233.77,447.469 1244,461.5C 1255.91,484.953 1251.41,504.453 1230.5,520C 1208.66,530.1 1190.49,525.6 1176,506.5C 1165.46,484.675 1169.29,465.842 1187.5,450C 1192.37,447.226 1197.37,445.059 1202.5,443.5 Z M 1203.5,454.5 C 1221.32,452.99 1233.15,460.657 1239,477.5C 1240.47,502.027 1228.97,514.194 1204.5,514C 1189.76,509.695 1181.76,499.862 1180.5,484.5C 1181.47,469.212 1189.14,459.212 1203.5,454.5 Z"/></g>
<g><path style="opacity:0.965" fill="#009f94" d="M 722.5,558.5 C 733.748,558.179 744.915,558.513 756,559.5C 773.577,595.654 791.411,631.654 809.5,667.5C 827.5,631.167 845.5,594.833 863.5,558.5C 881.923,595.012 900.089,631.679 918,668.5C 935.667,632.167 953.333,595.833 971,559.5C 982.085,558.513 993.252,558.179 1004.5,558.5C 976.5,618.168 947.667,677.501 918,736.5C 899.833,700.167 881.667,663.833 863.5,627.5C 845.228,663.71 827.228,700.043 809.5,736.5C 779.955,677.41 750.955,618.077 722.5,558.5 Z"/></g>
<g><path style="opacity:0.975" fill="#009f94" d="M 1021.5,558.5 C 1060.17,558.5 1098.83,558.5 1137.5,558.5C 1137.5,568.833 1137.5,579.167 1137.5,589.5C 1108.5,589.5 1079.5,589.5 1050.5,589.5C 1050.5,603.833 1050.5,618.167 1050.5,632.5C 1079.5,632.5 1108.5,632.5 1137.5,632.5C 1137.5,642.5 1137.5,652.5 1137.5,662.5C 1108.5,662.5 1079.5,662.5 1050.5,662.5C 1050.5,676.833 1050.5,691.167 1050.5,705.5C 1079.5,705.5 1108.5,705.5 1137.5,705.5C 1137.5,715.833 1137.5,726.167 1137.5,736.5C 1098.83,736.5 1060.17,736.5 1021.5,736.5C 1021.5,677.167 1021.5,617.833 1021.5,558.5 Z"/></g>
<g><path style="opacity:0.965" fill="#009f94" d="M 1198.5,558.5 C 1231.83,558.5 1265.17,558.5 1298.5,558.5C 1298.5,568.833 1298.5,579.167 1298.5,589.5C 1265.5,589.333 1232.5,589.5 1199.5,590C 1183.3,597.258 1179.47,608.758 1188,624.5C 1190.38,627.273 1193.22,629.439 1196.5,631C 1217.82,632.012 1239.16,633.012 1260.5,634C 1288.53,643.875 1301.03,663.708 1298,693.5C 1293.04,717.456 1278.54,731.622 1254.5,736C 1220.83,736.5 1187.17,736.667 1153.5,736.5C 1153.5,726.167 1153.5,715.833 1153.5,705.5C 1186.83,705.667 1220.17,705.5 1253.5,705C 1265.74,700.365 1270.57,691.532 1268,678.5C 1265.22,672.057 1260.72,667.223 1254.5,664C 1233.17,663 1211.83,662 1190.5,661C 1169.24,653.663 1157.08,638.829 1154,616.5C 1153.23,584.982 1168.06,565.649 1198.5,558.5 Z"/></g>
<g><path style="opacity:0.981" fill="#009f94" d="M 1315.5,558.5 C 1325.17,558.5 1334.83,558.5 1344.5,558.5C 1344.5,607.5 1344.5,656.5 1344.5,705.5C 1373.5,705.5 1402.5,705.5 1431.5,705.5C 1431.5,715.833 1431.5,726.167 1431.5,736.5C 1392.83,736.5 1354.17,736.5 1315.5,736.5C 1315.5,677.167 1315.5,617.833 1315.5,558.5 Z"/></g>
<g><path style="opacity:0.968" fill="#009f94" d="M 1447.5,558.5 C 1486.17,558.5 1524.83,558.5 1563.5,558.5C 1563.5,568.833 1563.5,579.167 1563.5,589.5C 1534.83,589.5 1506.17,589.5 1477.5,589.5C 1477.5,603.833 1477.5,618.167 1477.5,632.5C 1506.17,632.5 1534.83,632.5 1563.5,632.5C 1563.5,642.5 1563.5,652.5 1563.5,662.5C 1534.83,662.5 1506.17,662.5 1477.5,662.5C 1477.5,676.833 1477.5,691.167 1477.5,705.5C 1506.17,705.5 1534.83,705.5 1563.5,705.5C 1563.5,715.833 1563.5,726.167 1563.5,736.5C 1524.83,736.5 1486.17,736.5 1447.5,736.5C 1447.5,677.167 1447.5,617.833 1447.5,558.5 Z"/></g>
<g><path style="opacity:0.962" fill="#009f94" d="M 1580.5,558.5 C 1593.17,558.333 1605.84,558.5 1618.5,559C 1634.28,580.451 1650.45,601.618 1667,622.5C 1682.8,601.063 1698.97,579.897 1715.5,559C 1728.17,558.333 1740.83,558.333 1753.5,559C 1730,589.833 1706.5,620.667 1683,651.5C 1682.5,679.831 1682.33,708.165 1682.5,736.5C 1672.5,736.5 1662.5,736.5 1652.5,736.5C 1652.67,708.831 1652.5,681.165 1652,653.5C 1629.05,622.882 1605.72,592.548 1582,562.5C 1581.21,561.255 1580.71,559.922 1580.5,558.5 Z"/></g>
<g><path style="opacity:0.953" fill="#009f94" d="M 347.5,605.5 C 370.032,603.882 391.032,609.049 410.5,621C 415.146,624.642 418.646,629.142 421,634.5C 421.667,644.167 421.667,653.833 421,663.5C 419.873,672.949 415.373,680.116 407.5,685C 405.833,685.667 404.167,685.667 402.5,685C 384.906,676.035 366.573,669.035 347.5,664C 348.949,662.883 350.616,662.216 352.5,662C 369.322,660.47 385.655,662.637 401.5,668.5C 402.971,667.619 403.804,666.286 404,664.5C 405.885,655.147 405.885,645.814 404,636.5C 398.11,631.137 391.61,626.637 384.5,623C 372.18,617.064 359.846,611.231 347.5,605.5 Z"/></g>
<g><path style="opacity:0.891" fill="#009f94" d="M 428.5,635.5 C 443.517,637.18 453.517,645.18 458.5,659.5C 458.333,660.167 458.167,660.833 458,661.5C 451.455,650.307 441.621,644.974 428.5,645.5C 428.5,642.167 428.5,638.833 428.5,635.5 Z"/></g>
<g><path style="opacity:0.975" fill="#009f94" d="M 477.5,654.5 C 491.219,654.357 504.886,655.024 518.5,656.5C 518.5,706.833 518.5,757.167 518.5,807.5C 439.499,807.667 360.499,807.5 281.5,807C 311.113,802.805 337.78,791.805 361.5,774C 385.017,753.159 400.517,727.325 408,696.5C 408.667,700.167 408.667,703.833 408,707.5C 406.499,719.837 404.999,732.171 403.5,744.5C 402.881,750.427 404.881,755.26 409.5,759C 419.086,765.753 429.753,769.753 441.5,771C 457.57,771.965 473.57,771.299 489.5,769C 481.172,760.183 475.005,750.016 471,738.5C 467.646,714.982 464.146,691.482 460.5,668C 460.376,665.41 461.042,663.077 462.5,661C 467.148,657.771 472.148,655.604 477.5,654.5 Z"/></g>
</svg>
